<svg width="100" height="40" viewBox="0 0 100 40" fill="none" xmlns="http://www.w3.org/2000/svg">
  <!-- Diyar Logo Design -->
  <rect width="100" height="40" rx="8" fill="#1E40AF"/>
  
  <!-- Building icon -->
  <g transform="translate(8, 8)">
    <rect x="0" y="8" width="6" height="16" fill="#F59E0B" rx="1"/>
    <rect x="2" y="12" width="2" height="2" fill="#1E40AF"/>
    <rect x="2" y="16" width="2" height="2" fill="#1E40AF"/>
    <rect x="2" y="20" width="2" height="2" fill="#1E40AF"/>
    
    <rect x="8" y="4" width="6" height="20" fill="#F59E0B" rx="1"/>
    <rect x="10" y="8" width="2" height="2" fill="#1E40AF"/>
    <rect x="10" y="12" width="2" height="2" fill="#1E40AF"/>
    <rect x="10" y="16" width="2" height="2" fill="#1E40AF"/>
    <rect x="10" y="20" width="2" height="2" fill="#1E40AF"/>
    
    <rect x="16" y="10" width="6" height="14" fill="#F59E0B" rx="1"/>
    <rect x="18" y="14" width="2" height="2" fill="#1E40AF"/>
    <rect x="18" y="18" width="2" height="2" fill="#1E40AF"/>
  </g>
  
  <!-- Text -->
  <text x="34" y="16" font-family="Arial, sans-serif" font-size="10" font-weight="bold" fill="white">DIYAR</text>
  <text x="34" y="28" font-family="Arial, sans-serif" font-size="6" fill="#F59E0B">PROPERTY MANAGEMENT</text>
</svg>